<svg id="google" xmlns="http://www.w3.org/2000/svg" width="24.033" height="24.033" viewBox="0 0 24.033 24.033">
  <path id="Path_71" data-name="Path 71" d="M5.326,146.3l-.837,3.123-3.058.065a12.038,12.038,0,0,1-.088-11.221h0l2.722.5,1.192,2.706a7.172,7.172,0,0,0,.067,4.828Z" transform="translate(0 -131.778)" fill="#fbbb00"/>
  <path id="Path_72" data-name="Path 72" d="M273.171,208.176a12.012,12.012,0,0,1-4.284,11.616h0l-3.429-.175-.485-3.029a7.162,7.162,0,0,0,3.081-3.657h-6.426v-4.754h11.543Z" transform="translate(-249.347 -198.404)" fill="#518ef8"/>
  <path id="Path_73" data-name="Path 73" d="M48.616,316.272h0A12.021,12.021,0,0,1,30.509,312.6l3.894-3.188a7.147,7.147,0,0,0,10.3,3.659Z" transform="translate(-29.077 -294.885)" fill="#28b446"/>
  <path id="Path_74" data-name="Path 74" d="M46.967,2.766,43.074,5.954A7.146,7.146,0,0,0,32.539,9.7l-3.915-3.2h0A12.019,12.019,0,0,1,46.967,2.766Z" transform="translate(-27.28)" fill="#f14336"/>
</svg>
